<svg id="Layer_1" data-name="Layer 1" xmlns="http://www.w3.org/2000/svg" viewBox="0 0 529 149.81"><title>inDrive logo - Brandlogos.net</title><path d="M621.32,363.28c18,0,29.63,14.26,26.74,31.58H606.72c.91,7.52,7.18,12.21,14.2,12.2,6.39,0,11.66-2.9,14.51-8.78L646.85,404a28.43,28.43,0,0,1-25.52,15.09c-16.69-.09-28.29-12.51-28.29-27.93s11.69-27.84,28.29-27.93Zm13.79,22.1c-1.38-5.79-7.63-10-14-10s-12.42,4.07-14,10Z" transform="translate(-119.5 -309.1)" style="fill:#1b1b1c"/><path d="M578.62,364.79l-13,37.94-12.88-37.94h-14.6l19.31,52.83h16.43l19.31-52.83Z" transform="translate(-119.5 -309.1)" style="fill:#1b1b1c"/><path d="M517.33,417.62h13.73V364.79H517.33Z" transform="translate(-119.5 -309.1)" style="fill:#1b1b1c"/><path d="M517.33,344.33h13.73v13.74H517.33Z" transform="translate(-119.5 -309.1)" style="fill:#1b1b1c"/><path d="M488.47,370.52l-.4-5.73H475.34v52.82h13.73V394.67c0-13,9.86-18.53,20.76-16.14V364.41C503.19,362.76,493.45,363.78,488.47,370.52Z" transform="translate(-119.5 -309.1)" style="fill:#1b1b1c"/><path d="M431.64,404.56H421.08V363.45h10.56c12.1,0,20.65,8.45,20.65,20.56s-8.55,20.56-20.65,20.56Zm0-54.17h-24.3v67.24h24.3c19.6,0,34.39-14.41,34.39-33.62s-14.79-33.62-34.39-33.62h0Z" transform="translate(-119.5 -309.1)" style="fill:#1b1b1c"/><path d="M359.72,370.24l-.4-5.46H346.59v52.83h13.73V390.44c0-16.2,22.39-17.44,22.39-3.57v30.74h13.74v-32c0-23.67-26.11-26.57-36.72-15.4Z" transform="translate(-119.5 -309.1)" style="fill:#1b1b1c"/><path d="M322.22,417.62H336V364.79H322.22Z" transform="translate(-119.5 -309.1)" style="fill:#1b1b1c"/><path d="M322.22,344.33H336v13.74H322.22Z" transform="translate(-119.5 -309.1)" style="fill:#1b1b1c"/><path d="M119.5,384c0-20.79,0-31.2,2.9-39.56A52.59,52.59,0,0,1,154.84,312c8.37-2.9,18.77-2.9,39.56-2.9s31.2,0,39.56,2.9a52.56,52.56,0,0,1,32.44,32.44c2.9,8.37,2.9,18.76,2.9,39.56s0,31.2-2.9,39.56A52.56,52.56,0,0,1,234,456c-8.37,2.9-18.76,2.9-39.56,2.9s-31.2,0-39.56-2.9a52.56,52.56,0,0,1-32.44-32.44C119.5,415.2,119.5,404.8,119.5,384Z" transform="translate(-119.5 -309.1)" style="fill:#a7e92f"/><path d="M166.27,344.61h-.07a20.31,20.31,0,0,0-2.45.09,3,3,0,0,0-2.81,2.81,20.23,20.23,0,0,0-.09,2.45v6.47a20.27,20.27,0,0,0,.09,2.45,3,3,0,0,0,2.81,2.81,20.23,20.23,0,0,0,2.45.09h6.94a20.27,20.27,0,0,0,2.45-.09,3,3,0,0,0,2.81-2.81,20.22,20.22,0,0,0,.09-2.45V350a20.27,20.27,0,0,0-.09-2.45,3,3,0,0,0-2.81-2.81,20.26,20.26,0,0,0-2.45-.09Zm0,29.53h-.07a20.27,20.27,0,0,0-2.45.09,3,3,0,0,0-2.81,2.81,20.23,20.23,0,0,0-.09,2.45v38.35a20.27,20.27,0,0,0,.09,2.45,3,3,0,0,0,2.81,2.81,20.23,20.23,0,0,0,2.45.09h6.94a20.27,20.27,0,0,0,2.45-.09,3,3,0,0,0,2.81-2.81,20.23,20.23,0,0,0,.09-2.45V379.49a20.27,20.27,0,0,0-.09-2.45,3,3,0,0,0-2.81-2.81,20.23,20.23,0,0,0-2.45-.09Zm30.41-29.53h7.64c22.65,0,39.81,16.73,39.81,39.29S227,423.2,204.32,423.2h-7.64a20.36,20.36,0,0,1-2.45-.09,3,3,0,0,1-2.81-2.81,20.23,20.23,0,0,1-.09-2.45v-6.31a20.27,20.27,0,0,1,.09-2.45,3,3,0,0,1,2.81-2.81,20.31,20.31,0,0,1,2.45-.09h7.64a22.28,22.28,0,1,0,0-44.56h-7.64a20.27,20.27,0,0,1-2.45-.09,3,3,0,0,1-2.81-2.81,20.23,20.23,0,0,1-.09-2.45V350a20.27,20.27,0,0,1,.09-2.45,3,3,0,0,1,2.81-2.81,20.26,20.26,0,0,1,2.45-.09Z" transform="translate(-119.5 -309.1)" style="fill:#1b1b1c"/></svg>