<?xml version="1.0" encoding="UTF-8"?><svg id="uuid-50dbf6c6-28de-4547-abcc-58a5cbb64914" xmlns="http://www.w3.org/2000/svg" viewBox="0 0 60 22.7">
<title>Ola Consumer logo - Brandlogos.net</title><path d="M48.69,11.25l5.7,10.67h5.61L48.69.78l-11.31,21.14h5.61l5.7-10.67Z" style="fill:#0b1622;"/><path d="M30.14,16.97l.02-16.22h-4.95v21.17h9.54l2.65-4.95h-7.25Z" style="fill:#0b1622;"/><path d="M11.32,0c-2.24,0-4.42.66-6.29,1.9C3.17,3.15,1.72,4.92.87,6.99,0,9.07-.22,11.35.22,13.55c.43,2.2,1.51,4.23,3.09,5.81,1.58,1.59,3.59,2.67,5.79,3.11,2.19.44,4.47.22,6.53-.64,2.07-.86,3.83-2.31,5.08-4.18,1.24-1.87,1.91-4.06,1.91-6.31,0-3.01-1.19-5.89-3.31-8.02C17.19,1.2,14.32,0,11.32,0ZM11.32,17.46c-1.21,0-2.38-.35-3.39-1.02-1-.67-1.79-1.62-2.25-2.74-.46-1.12-.59-2.35-.35-3.53.23-1.19.81-2.28,1.66-3.13.85-.86,1.94-1.44,3.12-1.68,1.18-.24,2.41-.12,3.52.35,1.11.46,2.07,1.25,2.74,2.25.67,1.01,1.03,2.19,1.03,3.4,0,1.62-.65,3.18-1.79,4.32-1.14,1.15-2.7,1.79-4.31,1.79h.03Z" style="fill:#0b1622;"/></svg>